<svg width="243" height="41" viewBox="0 0 243 41" fill="none" xmlns="http://www.w3.org/2000/svg">
<g clip-path="url(#clip0_5_2)">
<circle cx="18.5" cy="20.5" r="17.5" fill="#D9D9D9"/>
<path d="M48.12 27C47.7147 27 47.3413 26.8987 47 26.696C46.6693 26.4933 46.4027 26.2267 46.2 25.896C45.9973 25.5547 45.896 25.1813 45.896 24.776V17.704C45.896 17.2987 45.9973 16.9307 46.2 16.6C46.4027 16.2587 46.6693 15.9867 47 15.784C47.3413 15.5813 47.7147 15.48 48.12 15.48H57.384V17.608H48.568C48.3973 17.608 48.2587 17.656 48.152 17.752C48.056 17.848 48.008 17.9867 48.008 18.168V24.312C48.008 24.4827 48.056 24.6213 48.152 24.728C48.2587 24.824 48.3973 24.872 48.568 24.872H57.384V27H48.12ZM61.2443 27C60.8389 27 60.4656 26.8987 60.1243 26.696C59.7936 26.4933 59.5269 26.2267 59.3243 25.896C59.1216 25.5547 59.0203 25.1813 59.0203 24.776V17.704C59.0203 17.2987 59.1216 16.9307 59.3243 16.6C59.5269 16.2587 59.7936 15.9867 60.1243 15.784C60.4656 15.5813 60.8389 15.48 61.2443 15.48H68.3163C68.7216 15.48 69.0896 15.5813 69.4203 15.784C69.7616 15.9867 70.0336 16.2587 70.2363 16.6C70.4389 16.9307 70.5403 17.2987 70.5403 17.704V24.776C70.5403 25.1813 70.4389 25.5547 70.2363 25.896C70.0336 26.2267 69.7616 26.4933 69.4203 26.696C69.0896 26.8987 68.7216 27 68.3163 27H61.2443ZM61.3243 24.872H68.2043C68.2576 24.872 68.3056 24.856 68.3483 24.824C68.3909 24.7813 68.4123 24.7333 68.4123 24.68V17.8C68.4123 17.7467 68.3909 17.704 68.3483 17.672C68.3056 17.6293 68.2576 17.608 68.2043 17.608H61.3243C61.2709 17.608 61.2229 17.6293 61.1803 17.672C61.1483 17.704 61.1323 17.7467 61.1323 17.8V24.68C61.1323 24.7333 61.1483 24.7813 61.1803 24.824C61.2229 24.856 61.2709 24.872 61.3243 24.872ZM72.3023 27V15.48H74.6223L81.6943 23.896V15.48H83.8223V27H81.5023L74.4143 18.568V27H72.3023ZM85.6148 27V15.48H87.9348L95.0068 23.896V15.48H97.1348V27H94.8148L87.7268 18.568V27H85.6148ZM98.9593 27V15.48H109.567V17.608H101.087V20.168H107.903V22.312H101.087V24.872H109.567V27H98.9593ZM113.401 27C112.996 27 112.623 26.8987 112.281 26.696C111.951 26.4933 111.684 26.2267 111.481 25.896C111.279 25.5547 111.177 25.1813 111.177 24.776V17.704C111.177 17.2987 111.279 16.9307 111.481 16.6C111.684 16.2587 111.951 15.9867 112.281 15.784C112.623 15.5813 112.996 15.48 113.401 15.48H122.665V17.608H113.849C113.679 17.608 113.54 17.656 113.433 17.752C113.337 17.848 113.289 17.9867 113.289 18.168V24.312C113.289 24.4827 113.337 24.6213 113.433 24.728C113.54 24.824 113.679 24.872 113.849 24.872H122.665V27H113.401ZM128.462 27V17.608H123.758V15.48H135.278V17.608H130.59V27H128.462ZM145.658 27L142.186 22.856H144.954L147.962 26.408V27H145.658ZM136.474 27V15.496H145.754C146.159 15.496 146.533 15.5973 146.874 15.8C147.215 16.0027 147.487 16.2747 147.69 16.616C147.893 16.9467 147.994 17.3147 147.994 17.72V20.824C147.994 21.2293 147.893 21.6027 147.69 21.944C147.487 22.2853 147.215 22.5573 146.874 22.76C146.533 22.952 146.159 23.048 145.754 23.048L138.586 23.064V27H136.474ZM138.778 20.92H145.658C145.711 20.92 145.759 20.904 145.802 20.872C145.845 20.84 145.866 20.7973 145.866 20.744V17.8C145.866 17.7467 145.845 17.704 145.802 17.672C145.759 17.6293 145.711 17.608 145.658 17.608H138.778C138.725 17.608 138.677 17.6293 138.634 17.672C138.602 17.704 138.586 17.7467 138.586 17.8V20.744C138.586 20.7973 138.602 20.84 138.634 20.872C138.677 20.904 138.725 20.92 138.778 20.92ZM149.453 27V15.48H151.549V27H149.453ZM152.939 27V26.408L157.275 21.24L152.939 16.072V15.48H155.227L158.683 19.576L162.107 15.48H164.411V16.072L160.059 21.24L164.411 26.392V27H162.107L158.667 22.92L155.227 27H152.939ZM166.132 23.32V21.224H172.676V23.32H166.132ZM176.525 27C176.12 27 175.746 26.8987 175.405 26.696C175.074 26.4933 174.808 26.2267 174.605 25.896C174.402 25.5547 174.301 25.1813 174.301 24.776V23.896H176.413V24.68C176.413 24.7333 176.429 24.7813 176.461 24.824C176.504 24.856 176.552 24.872 176.605 24.872H183.501C183.554 24.872 183.597 24.856 183.629 24.824C183.672 24.7813 183.693 24.7333 183.693 24.68V22.488C183.693 22.4347 183.672 22.392 183.629 22.36C183.597 22.328 183.554 22.312 183.501 22.312H176.525C176.12 22.312 175.746 22.2107 175.405 22.008C175.074 21.8053 174.808 21.5387 174.605 21.208C174.402 20.8667 174.301 20.488 174.301 20.072V17.704C174.301 17.2987 174.402 16.9307 174.605 16.6C174.808 16.2587 175.074 15.9867 175.405 15.784C175.746 15.5813 176.12 15.48 176.525 15.48H183.597C184.002 15.48 184.37 15.5813 184.701 15.784C185.042 15.9867 185.314 16.2587 185.517 16.6C185.72 16.9307 185.821 17.2987 185.821 17.704V18.584H183.693V17.8C183.693 17.7467 183.672 17.704 183.629 17.672C183.597 17.6293 183.554 17.608 183.501 17.608H176.605C176.552 17.608 176.504 17.6293 176.461 17.672C176.429 17.704 176.413 17.7467 176.413 17.8V19.992C176.413 20.0453 176.429 20.088 176.461 20.12C176.504 20.152 176.552 20.168 176.605 20.168H183.597C184.002 20.168 184.37 20.2693 184.701 20.472C185.042 20.6747 185.314 20.9467 185.517 21.288C185.72 21.6187 185.821 21.992 185.821 22.408V24.776C185.821 25.1813 185.72 25.5547 185.517 25.896C185.314 26.2267 185.042 26.4933 184.701 26.696C184.37 26.8987 184.002 27 183.597 27H176.525ZM191.696 27V17.608H186.992V15.48H198.512V17.608H193.824V27H191.696ZM201.901 27C201.495 27 201.122 26.8987 200.781 26.696C200.45 26.4933 200.183 26.2267 199.981 25.896C199.778 25.5547 199.677 25.1813 199.677 24.776V15.48H201.789V24.68C201.789 24.7333 201.805 24.7813 201.837 24.824C201.879 24.856 201.927 24.872 201.981 24.872H208.861C208.914 24.872 208.962 24.856 209.005 24.824C209.047 24.7813 209.069 24.7333 209.069 24.68V15.48H211.197V24.776C211.197 25.1813 211.095 25.5547 210.893 25.896C210.69 26.2267 210.418 26.4933 210.077 26.696C209.746 26.8987 209.378 27 208.973 27H201.901ZM212.991 27V15.48H222.271C222.676 15.48 223.049 15.5813 223.391 15.784C223.732 15.9867 224.004 16.2587 224.207 16.6C224.409 16.9307 224.511 17.2987 224.511 17.704V24.776C224.511 25.1813 224.409 25.5547 224.207 25.896C224.004 26.2267 223.732 26.4933 223.391 26.696C223.049 26.8987 222.676 27 222.271 27H212.991ZM215.279 24.872H222.175C222.228 24.872 222.276 24.856 222.319 24.824C222.361 24.7813 222.383 24.7333 222.383 24.68V17.8C222.383 17.7467 222.361 17.704 222.319 17.672C222.276 17.6293 222.228 17.608 222.175 17.608H215.279C215.225 17.608 215.177 17.6293 215.135 17.672C215.103 17.704 215.087 17.7467 215.087 17.8V24.68C215.087 24.7333 215.103 24.7813 215.135 24.824C215.177 24.856 215.225 24.872 215.279 24.872ZM226.078 27V15.48H228.174V27H226.078ZM231.916 27C231.511 27 231.137 26.8987 230.796 26.696C230.465 26.4933 230.199 26.2267 229.996 25.896C229.793 25.5547 229.692 25.1813 229.692 24.776V17.704C229.692 17.2987 229.793 16.9307 229.996 16.6C230.199 16.2587 230.465 15.9867 230.796 15.784C231.137 15.5813 231.511 15.48 231.916 15.48H238.988C239.393 15.48 239.761 15.5813 240.092 15.784C240.433 15.9867 240.705 16.2587 240.908 16.6C241.111 16.9307 241.212 17.2987 241.212 17.704V24.776C241.212 25.1813 241.111 25.5547 240.908 25.896C240.705 26.2267 240.433 26.4933 240.092 26.696C239.761 26.8987 239.393 27 238.988 27H231.916ZM231.996 24.872H238.876C238.929 24.872 238.977 24.856 239.02 24.824C239.063 24.7813 239.084 24.7333 239.084 24.68V17.8C239.084 17.7467 239.063 17.704 239.02 17.672C238.977 17.6293 238.929 17.608 238.876 17.608H231.996C231.943 17.608 231.895 17.6293 231.852 17.672C231.82 17.704 231.804 17.7467 231.804 17.8V24.68C231.804 24.7333 231.82 24.7813 231.852 24.824C231.895 24.856 231.943 24.872 231.996 24.872Z" fill="white"/>
<path fill-rule="evenodd" clip-rule="evenodd" d="M19.7767 9.70451L18.082 7L16.3872 9.70451L6.91876 24.8145L5 27.8765H8.61351H27.5504H31.1639L29.2452 24.8145L27.2054 21.5593H24.8451L26.2971 23.8765L27.5504 25.8765H25.1902H10.9737H8.61351L9.86678 23.8765L16.9018 12.6498L18.082 10.7665L19.2621 12.6498L21.4751 16.1813L22.6145 14.2331L19.7767 9.70451Z" fill="#C20BF2"/>
</g>
<defs>
<clipPath id="clip0_5_2">
<rect width="243" height="41" fill="white"/>
</clipPath>
</defs>
</svg>
