<svg width="50" height="50" viewBox="0 0 50 50" fill="none" xmlns="http://www.w3.org/2000/svg">
<circle cx="25" cy="25" r="25" fill="#C20BF2"/>
<path d="M25.721 18.003L24.255 18C20.911 17.992 18.008 20.709 17.985 24V27.79C17.985 28.58 17.885 29.351 17.454 30.008L17.167 30.446C16.73 31.11 17.2 32 17.985 32H32.015C32.8 32 33.269 31.11 32.833 30.446L32.546 30.008C32.116 29.351 32.015 28.579 32.015 27.789V24.001C31.975 20.709 29.065 18.011 25.721 18.003V18.003Z" stroke="white" stroke-width="2" stroke-linecap="round" stroke-linejoin="round"/>
<path d="M28 32C28 32.7956 27.6839 33.5587 27.1213 34.1213C26.5587 34.6839 25.7956 35 25 35C24.2044 35 23.4413 34.6839 22.8787 34.1213C22.3161 33.5587 22 32.7956 22 32" stroke="white" stroke-width="2" stroke-linecap="round" stroke-linejoin="round"/>
<path d="M25 15C25.5304 15 26.0391 15.2107 26.4142 15.5858C26.7893 15.9609 27 16.4696 27 17V18H23V17C23 16.4696 23.2107 15.9609 23.5858 15.5858C23.9609 15.2107 24.4696 15 25 15Z" stroke="white" stroke-width="2" stroke-linecap="round" stroke-linejoin="round"/>
</svg>
